v -0.258830 -0.200383 -0.399626
v 0.464777 0.352397 0.126099
v -0.535218 0.352397 0.451023
v -1.153257 0.352401 -0.399626
v -0.535218 0.352397 -1.250276
v 0.464777 0.352397 -0.925352
v 0.017558 1.246837 0.451023
v -0.982438 1.246836 0.126099
v -0.982438 1.246836 -0.925352
v 0.017558 1.246837 -1.250276
v 0.635596 1.246832 -0.399626
v -0.258830 1.799617 -0.399626
v -0.421286 -0.051038 0.100369
v 0.166492 -0.051037 -0.090615
v 0.004038 0.273879 0.409385
v 0.591817 0.273881 -0.399626
v 0.166492 -0.051037 -0.708638
v -0.784560 -0.051035 -0.399626
v -0.947020 0.273881 0.100370
v -0.421286 -0.051038 -0.899622
v -0.947020 0.273881 -0.899623
v 0.004038 0.273879 -1.208638
v 0.692227 0.799617 -0.090614
v 0.692227 0.799617 -0.708639
v -0.258830 0.799617 0.600374
v 0.328955 0.799617 0.409390
v -1.209888 0.799617 -0.090614
v -0.846616 0.799617 0.409390
v -0.846616 0.799617 -1.208643
v -1.209888 0.799617 -0.708639
v 0.328955 0.799617 -1.208643
v -0.258830 0.799617 -1.399626
v 0.429359 1.325353 0.100370
v -0.521699 1.325354 0.409385
v -1.109478 1.325353 -0.399626
v -0.521699 1.325354 -1.208638
v 0.429359 1.325353 -0.899623
v -0.096375 1.650271 0.100369
v 0.266899 1.650269 -0.399626
v -0.684153 1.650271 -0.090615
v -0.684153 1.650271 -0.708638
v -0.096375 1.650271 -0.899622
vt 0.021188 0.062072
vt 0.109233 0.118505
vt 0.000303 0.164543
vt 0.184351 0.191497
vt 0.225343 0.095112
vt 0.543507 0.062074
vt 0.564392 0.164544
vt 0.455461 0.118506
vt 0.459122 0.000303
vt 0.648899 0.606275
vt 0.752189 0.606275
vt 0.686147 0.702614
vt 0.340285 0.654614
vt 0.443575 0.654614
vt 0.377533 0.750956
vt 0.000303 0.269284
vt 0.092327 0.230390
vt 0.075420 0.342278
vt 0.380343 0.191499
vt 0.472367 0.230392
vt 0.380342 0.296239
vt 0.163465 0.601287
vt 0.266575 0.618760
vt 0.184351 0.703761
vt 0.683573 0.101287
vt 0.767959 0.039516
vt 0.771620 0.157720
vt 0.282045 0.229269
vt 0.184351 0.296239
vt 0.388016 0.500303
vt 0.388016 0.603594
vt 0.291674 0.537553
vt 0.282650 0.229270
vt 0.075420 0.657722
vt 0.662689 0.203760
vt 0.494592 0.712246
vt 0.597883 0.712246
vt 0.531840 0.808587
vt 0.401226 0.398713
vt 0.485612 0.460484
vt 0.374042 0.499697
vt 0.184351 0.808503
vt 0.225343 0.904888
vt 0.109233 0.881495
vt 0.000303 0.730716
vt 0.092327 0.769610
vt 0.000303 0.835457
vt 0.662691 0.308501
vt 0.754715 0.269608
vt 0.737809 0.381493
vt 0.846740 0.335455
vt 0.825854 0.437926
vt 0.846739 0.230714
vt 0.021188 0.937928
vt 0.105574 0.999697
vt 0.802601 0.817609
vt 0.686147 0.808586
vt 0.752190 0.712246
vt 0.648899 0.712246
vt 0.390698 0.865950
vt 0.456739 0.769610
vt 0.493987 0.865950
vt 0.340285 0.760586
vt 0.079079 0.460484
vt 0.163465 0.398713
vt 0.190648 0.499697
vt 0.741470 0.499697
vt 0.648295 0.817610
vt 0.621699 0.404887
vt 0.545003 0.923580
vt 0.611047 0.827240
vt 0.648294 0.923580
vt 0.494592 0.818216
vt 0.298118 0.381240
vt 0.489273 0.342279
vt 0.282650 0.654008
vt 0.266575 0.381240
vt 0.494592 0.500303
vt 0.611047 0.509328
vt 0.545003 0.605669
vt 0.648294 0.605669
vt 0.388621 0.550717
vt 0.484962 0.616759
vt 0.388621 0.654009
vt 0.493986 0.500303
vt 0.079079 0.539516
vt 0.282045 0.770731
vt 0.648294 0.711641
vt 0.531838 0.702616
vt 0.597882 0.606275
vt 0.494592 0.606275
vt 0.564392 0.269285
vt 0.564997 0.270730
vt 0.493986 0.759980
vt 0.580465 0.118760
vt 0.656389 0.000303
vt 0.802601 0.711639
vt 0.190648 0.500303
vt 0.699311 0.605667
vt 0.765353 0.509326
vt 0.802602 0.605667
vt 0.648899 0.500303
vt 0.339352 0.095113
vt 0.699311 0.923580
vt 0.765353 0.827240
vt 0.802601 0.923580
vt 0.648900 0.818216
vt 0.105574 0.000303
vn 0.1024 -0.9435 0.3151
vn 0.7002 -0.6617 0.2680
vn -0.2680 -0.9435 0.1947
vn -0.2680 -0.9435 -0.1947
vn 0.1024 -0.9435 -0.3151
vn 0.9050 -0.3304 0.2680
vn 0.0247 -0.3304 0.9435
vn -0.8897 -0.3304 0.3151
vn -0.5746 -0.3304 -0.7488
vn 0.5346 -0.3304 -0.7779
vn 0.8026 -0.1256 0.5831
vn -0.3066 -0.1256 0.9435
vn -0.9921 -0.1256 0.0000
vn -0.3066 -0.1256 -0.9435
vn 0.8026 -0.1256 -0.5831
vn 0.4089 0.6617 0.6284
vn -0.4713 0.6617 0.5831
vn -0.7002 0.6617 -0.2680
vn 0.0385 0.6617 -0.7488
vn 0.7240 0.6617 -0.1947
vn 0.2680 0.9435 -0.1947
vn 0.4911 0.7947 -0.3568
vn 0.4089 0.6617 -0.6284
vn -0.1024 0.9435 -0.3151
vn -0.1876 0.7947 -0.5773
vn -0.4713 0.6617 -0.5831
vn -0.3313 0.9435 0.0000
vn -0.6071 0.7947 0.0000
vn -0.7002 0.6617 0.2680
vn -0.1024 0.9435 0.3151
vn -0.1876 0.7947 0.5773
vn 0.0385 0.6617 0.7488
vn 0.2680 0.9435 0.1947
vn 0.4911 0.7947 0.3568
vn 0.7240 0.6617 0.1947
vn 0.8897 0.3304 -0.3151
vn 0.7947 0.1876 -0.5773
vn 0.5746 0.3304 -0.7488
vn -0.0247 0.3304 -0.9435
vn -0.3035 0.1876 -0.9342
vn -0.5346 0.3304 -0.7779
vn -0.9050 0.3304 -0.2680
vn -0.9822 0.1876 0.0000
vn -0.9050 0.3304 0.2680
vn -0.5346 0.3304 0.7779
vn -0.3035 0.1876 0.9342
vn -0.0247 0.3304 0.9435
vn 0.5746 0.3304 0.7488
vn 0.7947 0.1876 0.5773
vn 0.8897 0.3304 0.3151
vn 0.3066 0.1256 -0.9435
vn 0.3035 -0.1876 -0.9342
vn 0.0247 -0.3304 -0.9435
vn -0.8026 0.1256 -0.5831
vn -0.7947 -0.1876 -0.5773
vn -0.8897 -0.3304 -0.3151
vn -0.8026 0.1256 0.5831
vn -0.7947 -0.1876 0.5773
vn -0.5746 -0.3304 0.7488
vn 0.3066 0.1256 0.9435
vn 0.3035 -0.1876 0.9342
vn 0.5346 -0.3304 0.7779
vn 0.9921 0.1256 0.0000
vn 0.9822 -0.1876 0.0000
vn 0.9050 -0.3304 -0.2680
vn 0.4713 -0.6617 -0.5831
vn 0.1876 -0.7947 -0.5773
vn -0.0385 -0.6617 -0.7488
vn -0.4089 -0.6617 -0.6284
vn -0.4911 -0.7947 -0.3568
vn -0.7240 -0.6617 -0.1947
vn -0.7240 -0.6617 0.1947
vn -0.4911 -0.7947 0.3568
vn -0.4089 -0.6617 0.6284
vn 0.7002 -0.6617 -0.2680
vn 0.6071 -0.7947 0.0000
vn 0.3313 -0.9435 0.0000
vn -0.0385 -0.6617 0.7488
vn 0.1876 -0.7947 0.5773
vn 0.4713 -0.6617 0.5831
f 1/1/1 14/2/1 13/3/1
f 2/4/2 14/2/2 16/5/2
f 1/6/3 13/7/3 18/8/3
f 1/6/4 18/8/4 20/9/4
f 1/10/5 20/11/5 17/12/5
f 2/13/6 16/14/6 23/15/6
f 3/16/7 15/17/7 25/18/7
f 4/19/8 19/20/8 27/21/8
f 5/22/9 21/23/9 29/24/9
f 6/25/10 22/26/10 31/27/10
f 2/4/11 23/28/11 26/29/11
f 3/30/12 25/31/12 28/32/12
f 4/19/13 27/21/13 30/33/13
f 5/22/14 29/24/14 32/34/14
f 6/25/15 31/27/15 24/35/15
f 7/36/16 33/37/16 38/38/16
f 8/39/17 34/40/17 40/41/17
f 9/42/18 35/43/18 41/44/18
f 10/45/19 36/46/19 42/47/19
f 11/48/20 37/49/20 39/50/20
f 39/50/21 42/51/21 12/52/21
f 39/50/22 37/49/22 42/51/22
f 37/49/23 10/53/23 42/51/23
f 42/47/24 41/44/24 12/54/24
f 42/47/25 36/46/25 41/44/25
f 36/46/26 9/42/26 41/44/26
f 41/44/27 40/55/27 12/54/27
f 41/56/28 35/57/28 40/58/28
f 35/57/29 8/59/29 40/58/29
f 40/60/30 38/61/30 12/62/30
f 40/60/31 34/63/31 38/61/31
f 34/64/32 7/65/32 38/66/32
f 38/67/33 39/50/33 12/52/33
f 38/38/34 33/37/34 39/68/34
f 33/69/35 11/48/35 39/50/35
f 24/35/36 37/49/36 11/48/36
f 24/35/37 31/27/37 37/49/37
f 31/27/38 10/53/38 37/49/38
f 32/34/39 36/46/39 10/45/39
f 32/34/40 29/24/40 36/46/40
f 29/24/41 9/42/41 36/46/41
f 30/70/42 35/71/42 9/72/42
f 30/70/43 27/73/43 35/71/43
f 27/21/44 8/39/44 35/74/44
f 28/75/45 34/40/45 8/39/45
f 28/32/46 25/31/46 34/76/46
f 25/18/47 7/65/47 34/64/47
f 26/29/48 33/77/48 7/65/48
f 26/78/49 23/79/49 33/80/49
f 23/79/50 11/81/50 33/80/50
f 31/82/51 32/83/51 10/84/51
f 31/82/52 22/85/52 32/83/52
f 22/86/53 5/22/53 32/34/53
f 29/24/54 30/87/54 9/42/54
f 29/88/55 21/89/55 30/90/55
f 21/89/56 4/91/56 30/90/56
f 27/21/57 28/75/57 8/39/57
f 27/21/58 19/20/58 28/75/58
f 19/20/59 3/92/59 28/75/59
f 25/18/60 26/29/60 7/65/60
f 25/18/61 15/17/61 26/29/61
f 15/17/62 2/4/62 26/29/62
f 23/93/63 24/35/63 11/48/63
f 23/15/64 16/14/64 24/94/64
f 16/95/65 6/25/65 24/35/65
f 17/96/66 22/26/66 6/25/66
f 17/12/67 20/11/67 22/97/67
f 20/98/68 5/22/68 22/86/68
f 20/99/69 21/100/69 5/101/69
f 20/99/70 18/102/70 21/100/70
f 18/8/71 4/19/71 21/103/71
f 18/8/72 19/20/72 4/19/72
f 18/8/73 13/7/73 19/20/73
f 13/7/74 3/92/74 19/20/74
f 16/104/75 17/105/75 6/106/75
f 16/104/76 14/107/76 17/105/76
f 14/2/77 1/1/77 17/108/77
f 13/3/78 15/17/78 3/16/78
f 13/3/79 14/2/79 15/17/79
f 14/2/80 2/4/80 15/17/80