# Blender v3.0.1 OBJ File: ''
# www.blender.org
o Cube_Cube.002
v -0.934419 -0.607888 5.802907
v -1.358087 2.483402 1.060171
v -1.915790 -2.512617 -3.684640
v -1.381503 1.131713 -2.704574
v 2.109652 -1.131713 2.704574
v 0.050449 2.512617 0.721493
v 2.850291 -3.036442 -1.060171
v 0.934419 0.607888 -3.043252
vt 0.625000 0.000000
vt 0.375000 0.250000
vt 0.375000 0.000000
vt 0.625000 0.500000
vt 0.375000 0.500000
vt 0.375000 0.750000
vt 0.625000 0.750000
vt 0.375000 1.000000
vt 0.125000 0.500000
vt 0.125000 0.750000
vt 0.875000 0.500000
vt 0.625000 0.250000
vt 0.625000 1.000000
vt 0.875000 0.750000
vn -0.9949 0.0165 0.0996
vn 0.4493 -0.2331 -0.8624
vn 0.8947 0.4439 -0.0486
vn 0.6116 0.6158 0.4967
vn 0.0286 -0.9806 0.1939
vn 0.1413 0.8963 -0.4203
vn -0.9861 0.1582 -0.0507
vn -0.0793 0.2697 -0.9597
vn 0.8782 0.4771 -0.0352
vn 0.1114 0.8371 0.5356
vn -0.3058 -0.8724 0.3812
vn -0.1001 0.9366 -0.3357
s off
f 2/1/1 3/2/1 1/3/1
f 3/2/2 8/4/2 7/5/2
f 8/4/3 5/6/3 7/5/3
f 6/7/4 1/8/4 5/6/4
f 3/9/5 5/6/5 1/10/5
f 4/11/6 6/7/6 8/4/6
f 2/1/7 4/12/7 3/2/7
f 3/2/8 4/12/8 8/4/8
f 8/4/9 6/7/9 5/6/9
f 6/7/10 2/13/10 1/8/10
f 3/9/11 7/5/11 5/6/11
f 4/11/12 2/14/12 6/7/12
